<svg data-v-fde0c5aa="" xmlns="http://www.w3.org/2000/svg" viewBox="0 0 300 300" class="iconLeftSlogan"><!----><defs data-v-fde0c5aa=""><!----></defs><rect data-v-fde0c5aa="" fill="#FEFFFE" x="0" y="0" width="300px" height="300px" class="logo-background-square"></rect><defs data-v-fde0c5aa=""><!----></defs><g data-v-fde0c5aa="" id="ae9ca123-747e-41f7-830c-050dcf10fde7" fill="#0E0D22" transform="matrix(1.817268688678451,0,0,1.817268688678451,91.06670214369846,125.98885877423645)"><path d="M0.28 3.35L8.32 3.35L8.32 5.21L5.39 5.21L5.39 13.05L3.21 13.05L3.21 5.21L0.28 5.21L0.28 3.35ZM11.66 13.05L9.58 13.05L9.58 2.52L11.66 2.18L11.66 5.71L11.66 5.71Q11.87 5.64 12.20 5.58L12.20 5.58L12.20 5.58Q12.53 5.52 12.84 5.52L12.84 5.52L12.84 5.52Q13.73 5.52 14.33 5.76L14.33 5.76L14.33 5.76Q14.92 6.01 15.28 6.45L15.28 6.45L15.28 6.45Q15.64 6.90 15.79 7.52L15.79 7.52L15.79 7.52Q15.93 8.13 15.93 8.89L15.93 8.89L15.93 13.05L13.85 13.05L13.85 9.14L13.85 9.14Q13.85 8.13 13.59 7.71L13.59 7.71L13.59 7.71Q13.33 7.29 12.63 7.29L12.63 7.29L12.63 7.29Q12.35 7.29 12.10 7.34L12.10 7.34L12.10 7.34Q11.86 7.39 11.66 7.45L11.66 7.45L11.66 13.05ZM19.91 5.68L19.91 13.05L17.82 13.05L17.82 5.68L19.91 5.68ZM20.10 3.56L20.10 3.56L20.10 3.56Q20.10 4.13 19.73 4.46L19.73 4.46L19.73 4.46Q19.36 4.79 18.86 4.79L18.86 4.79L18.86 4.79Q18.35 4.79 17.98 4.46L17.98 4.46L17.98 4.46Q17.61 4.13 17.61 3.56L17.61 3.56L17.61 3.56Q17.61 2.98 17.98 2.65L17.98 2.65L17.98 2.65Q18.35 2.32 18.86 2.32L18.86 2.32L18.86 2.32Q19.36 2.32 19.73 2.65L19.73 2.65L19.73 2.65Q20.10 2.98 20.10 3.56ZM21.87 13.05L21.87 5.94L21.87 5.94Q22.40 5.78 23.24 5.65L23.24 5.65L23.24 5.65Q24.08 5.52 25.00 5.52L25.00 5.52L25.00 5.52Q25.94 5.52 26.56 5.76L26.56 5.76L26.56 5.76Q27.19 6.01 27.55 6.45L27.55 6.45L27.55 6.45Q27.92 6.90 28.07 7.52L28.07 7.52L28.07 7.52Q28.22 8.13 28.22 8.89L28.22 8.89L28.22 13.05L26.14 13.05L26.14 9.14L26.14 9.14Q26.14 8.13 25.87 7.71L25.87 7.71L25.87 7.71Q25.61 7.29 24.88 7.29L24.88 7.29L24.88 7.29Q24.65 7.29 24.40 7.31L24.40 7.31L24.40 7.31Q24.15 7.34 23.95 7.36L23.95 7.36L23.95 13.05L21.87 13.05ZM32.20 2.18L32.20 8.34L32.20 8.34Q32.51 8.01 32.84 7.64L32.84 7.64L32.84 7.64Q33.17 7.28 33.47 6.92L33.47 6.92L33.47 6.92Q33.78 6.57 34.05 6.24L34.05 6.24L34.05 6.24Q34.33 5.92 34.52 5.68L34.52 5.68L37.00 5.68L37.00 5.68Q36.26 6.54 35.55 7.31L35.55 7.31L35.55 7.31Q34.85 8.09 34.01 8.92L34.01 8.92L34.01 8.92Q34.43 9.30 34.87 9.82L34.87 9.82L34.87 9.82Q35.32 10.35 35.74 10.91L35.74 10.91L35.74 10.91Q36.16 11.47 36.51 12.03L36.51 12.03L36.51 12.03Q36.86 12.59 37.10 13.05L37.10 13.05L34.71 13.05L34.71 13.05Q34.48 12.68 34.20 12.24L34.20 12.24L34.20 12.24Q33.91 11.80 33.59 11.36L33.59 11.36L33.59 11.36Q33.26 10.92 32.91 10.51L32.91 10.51L32.91 10.51Q32.55 10.11 32.20 9.83L32.20 9.83L32.20 13.05L30.11 13.05L30.11 2.52L32.20 2.18ZM43.55 8.19L43.55 8.19L43.55 8.19Q43.55 8.90 43.73 9.48L43.73 9.48L43.73 9.48Q43.90 10.05 44.23 10.46L44.23 10.46L44.23 10.46Q44.56 10.88 45.04 11.10L45.04 11.10L45.04 11.10Q45.51 11.33 46.13 11.33L46.13 11.33L46.13 11.33Q46.73 11.33 47.22 11.10L47.22 11.10L47.22 11.10Q47.70 10.88 48.03 10.46L48.03 10.46L48.03 10.46Q48.36 10.05 48.53 9.48L48.53 9.48L48.53 9.48Q48.71 8.90 48.71 8.19L48.71 8.19L48.71 8.19Q48.71 7.48 48.53 6.89L48.53 6.89L48.53 6.89Q48.36 6.31 48.03 5.90L48.03 5.90L48.03 5.90Q47.70 5.49 47.22 5.26L47.22 5.26L47.22 5.26Q46.73 5.04 46.13 5.04L46.13 5.04L46.13 5.04Q45.51 5.04 45.04 5.27L45.04 5.27L45.04 5.27Q44.56 5.50 44.23 5.92L44.23 5.92L44.23 5.92Q43.90 6.33 43.73 6.91L43.73 6.91L43.73 6.91Q43.55 7.49 43.55 8.19ZM50.96 8.19L50.96 8.19L50.96 8.19Q50.96 9.44 50.59 10.38L50.59 10.38L50.59 10.38Q50.22 11.33 49.57 11.96L49.57 11.96L49.57 11.96Q48.93 12.60 48.04 12.92L48.04 12.92L48.04 12.92Q47.15 13.24 46.13 13.24L46.13 13.24L46.13 13.24Q45.14 13.24 44.25 12.92L44.25 12.92L44.25 12.92Q43.37 12.60 42.71 11.96L42.71 11.96L42.71 11.96Q42.06 11.33 41.68 10.38L41.68 10.38L41.68 10.38Q41.30 9.44 41.30 8.19L41.30 8.19L41.30 8.19Q41.30 6.94 41.69 6.00L41.69 6.00L41.69 6.00Q42.08 5.05 42.75 4.41L42.75 4.41L42.75 4.41Q43.41 3.77 44.29 3.44L44.29 3.44L44.29 3.44Q45.16 3.12 46.13 3.12L46.13 3.12L46.13 3.12Q47.12 3.12 48.01 3.44L48.01 3.44L48.01 3.44Q48.89 3.77 49.55 4.41L49.55 4.41L49.55 4.41Q50.20 5.05 50.58 6.00L50.58 6.00L50.58 6.00Q50.96 6.94 50.96 8.19ZM58.93 5.68L58.93 12.80L58.93 12.80Q58.39 12.95 57.55 13.08L57.55 13.08L57.55 13.08Q56.71 13.22 55.79 13.22L55.79 13.22L55.79 13.22Q54.85 13.22 54.23 12.96L54.23 12.96L54.23 12.96Q53.61 12.71 53.24 12.26L53.24 12.26L53.24 12.26Q52.88 11.80 52.72 11.17L52.72 11.17L52.72 11.17Q52.57 10.54 52.57 9.79L52.57 9.79L52.57 5.68L54.66 5.68L54.66 9.53L54.66 9.53Q54.66 10.54 54.92 10.99L54.92 10.99L54.92 10.99Q55.19 11.44 55.92 11.44L55.92 11.44L55.92 11.44Q56.14 11.44 56.39 11.42L56.39 11.42L56.39 11.42Q56.64 11.40 56.84 11.37L56.84 11.37L56.84 5.68L58.93 5.68ZM60.82 10.04L60.82 3.85L62.90 3.51L62.90 5.68L65.41 5.68L65.41 7.42L62.90 7.42L62.90 10.01L62.90 10.01Q62.90 10.67 63.13 11.06L63.13 11.06L63.13 11.06Q63.36 11.45 64.06 11.45L64.06 11.45L64.06 11.45Q64.40 11.45 64.76 11.39L64.76 11.39L64.76 11.39Q65.11 11.33 65.41 11.21L65.41 11.21L65.70 12.84L65.70 12.84Q65.32 12.99 64.86 13.10L64.86 13.10L64.86 13.10Q64.40 13.22 63.73 13.22L63.73 13.22L63.73 13.22Q62.87 13.22 62.31 12.98L62.31 12.98L62.31 12.98Q61.75 12.75 61.42 12.34L61.42 12.34L61.42 12.34Q61.08 11.93 60.95 11.34L60.95 11.34L60.95 11.34Q60.82 10.75 60.82 10.04L60.82 10.04ZM69.22 11.55L69.22 11.55L69.22 11.55Q69.79 11.55 70.03 11.44L70.03 11.44L70.03 11.44Q70.27 11.33 70.27 11.00L70.27 11.00L70.27 11.00Q70.27 10.75 69.96 10.56L69.96 10.56L69.96 10.56Q69.65 10.37 69.02 10.14L69.02 10.14L69.02 10.14Q68.53 9.95 68.13 9.76L68.13 9.76L68.13 9.76Q67.73 9.56 67.45 9.29L67.45 9.29L67.45 9.29Q67.17 9.02 67.02 8.64L67.02 8.64L67.02 8.64Q66.86 8.26 66.86 7.73L66.86 7.73L66.86 7.73Q66.86 6.69 67.63 6.09L67.63 6.09L67.63 6.09Q68.40 5.49 69.75 5.49L69.75 5.49L69.75 5.49Q70.42 5.49 71.04 5.61L71.04 5.61L71.04 5.61Q71.65 5.73 72.02 5.87L72.02 5.87L71.65 7.49L71.65 7.49Q71.29 7.36 70.86 7.27L70.86 7.27L70.86 7.27Q70.43 7.17 69.90 7.17L69.90 7.17L69.90 7.17Q68.92 7.17 68.92 7.71L68.92 7.71L68.92 7.71Q68.92 7.84 68.96 7.94L68.96 7.94L68.96 7.94Q69.01 8.04 69.13 8.13L69.13 8.13L69.13 8.13Q69.26 8.22 69.47 8.32L69.47 8.32L69.47 8.32Q69.69 8.43 70.03 8.55L70.03 8.55L70.03 8.55Q70.71 8.81 71.16 9.05L71.16 9.05L71.16 9.05Q71.61 9.30 71.87 9.58L71.87 9.58L71.87 9.58Q72.13 9.87 72.23 10.22L72.23 10.22L72.23 10.22Q72.34 10.57 72.34 11.03L72.34 11.03L72.34 11.03Q72.34 12.12 71.52 12.68L71.52 12.68L71.52 12.68Q70.70 13.24 69.20 13.24L69.20 13.24L69.20 13.24Q68.22 13.24 67.57 13.08L67.57 13.08L67.57 13.08Q66.92 12.91 66.67 12.80L66.67 12.80L67.02 11.10L67.02 11.10Q67.55 11.31 68.11 11.43L68.11 11.43L68.11 11.43Q68.67 11.55 69.22 11.55ZM75.98 5.68L75.98 13.05L73.89 13.05L73.89 5.68L75.98 5.68ZM76.17 3.56L76.17 3.56L76.17 3.56Q76.17 4.13 75.80 4.46L75.80 4.46L75.80 4.46Q75.43 4.79 74.93 4.79L74.93 4.79L74.93 4.79Q74.42 4.79 74.05 4.46L74.05 4.46L74.05 4.46Q73.68 4.13 73.68 3.56L73.68 3.56L73.68 3.56Q73.68 2.98 74.05 2.65L74.05 2.65L74.05 2.65Q74.42 2.32 74.93 2.32L74.93 2.32L74.93 2.32Q75.43 2.32 75.80 2.65L75.80 2.65L75.80 2.65Q76.17 2.98 76.17 3.56ZM79.72 9.31L79.72 9.31L79.72 9.31Q79.72 10.28 80.15 10.86L80.15 10.86L80.15 10.86Q80.58 11.45 81.44 11.45L81.44 11.45L81.44 11.45Q81.72 11.45 81.96 11.43L81.96 11.43L81.96 11.43Q82.19 11.41 82.35 11.38L82.35 11.38L82.35 7.59L82.35 7.59Q82.15 7.46 81.84 7.38L81.84 7.38L81.84 7.38Q81.52 7.29 81.20 7.29L81.20 7.29L81.20 7.29Q79.72 7.29 79.72 9.31ZM84.43 2.18L84.43 12.81L84.43 12.81Q84.15 12.89 83.79 12.97L83.79 12.97L83.79 12.97Q83.43 13.05 83.03 13.10L83.03 13.10L83.03 13.10Q82.63 13.16 82.22 13.20L82.22 13.20L82.22 13.20Q81.80 13.23 81.42 13.23L81.42 13.23L81.42 13.23Q80.51 13.23 79.80 12.96L79.80 12.96L79.80 12.96Q79.09 12.70 78.60 12.20L78.60 12.20L78.60 12.20Q78.11 11.70 77.85 11.00L77.85 11.00L77.85 11.00Q77.59 10.29 77.59 9.41L77.59 9.41L77.59 9.41Q77.59 8.51 77.81 7.79L77.81 7.79L77.81 7.79Q78.04 7.07 78.46 6.57L78.46 6.57L78.46 6.57Q78.88 6.06 79.49 5.80L79.49 5.80L79.49 5.80Q80.09 5.53 80.88 5.53L80.88 5.53L80.88 5.53Q81.31 5.53 81.66 5.61L81.66 5.61L81.66 5.61Q82.00 5.70 82.35 5.85L82.35 5.85L82.35 2.52L84.43 2.18ZM86.04 9.42L86.04 9.42L86.04 9.42Q86.04 8.44 86.35 7.71L86.35 7.71L86.35 7.71Q86.65 6.97 87.14 6.48L87.14 6.48L87.14 6.48Q87.63 5.99 88.26 5.74L88.26 5.74L88.26 5.74Q88.90 5.49 89.57 5.49L89.57 5.49L89.57 5.49Q91.14 5.49 92.05 6.45L92.05 6.45L92.05 6.45Q92.96 7.41 92.96 9.27L92.96 9.27L92.96 9.27Q92.96 9.45 92.95 9.67L92.95 9.67L92.95 9.67Q92.93 9.88 92.92 10.05L92.92 10.05L88.19 10.05L88.19 10.05Q88.26 10.70 88.79 11.07L88.79 11.07L88.79 11.07Q89.32 11.45 90.22 11.45L90.22 11.45L90.22 11.45Q90.79 11.45 91.34 11.35L91.34 11.35L91.34 11.35Q91.90 11.24 92.25 11.09L92.25 11.09L92.53 12.78L92.53 12.78Q92.36 12.87 92.08 12.95L92.08 12.95L92.08 12.95Q91.80 13.03 91.46 13.10L91.46 13.10L91.46 13.10Q91.11 13.16 90.72 13.20L90.72 13.20L90.72 13.20Q90.33 13.24 89.94 13.24L89.94 13.24L89.94 13.24Q88.94 13.24 88.21 12.95L88.21 12.95L88.21 12.95Q87.47 12.66 86.99 12.14L86.99 12.14L86.99 12.14Q86.51 11.63 86.28 10.93L86.28 10.93L86.28 10.93Q86.04 10.23 86.04 9.42ZM88.19 8.62L90.94 8.62L90.94 8.62Q90.93 8.36 90.85 8.11L90.85 8.11L90.85 8.11Q90.78 7.85 90.62 7.66L90.62 7.66L90.62 7.66Q90.45 7.46 90.21 7.34L90.21 7.34L90.21 7.34Q89.96 7.21 89.60 7.21L89.60 7.21L89.60 7.21Q89.25 7.21 89.00 7.33L89.00 7.33L89.00 7.33Q88.75 7.45 88.58 7.64L88.58 7.64L88.58 7.64Q88.41 7.84 88.32 8.10L88.32 8.10L88.32 8.10Q88.23 8.36 88.19 8.62L88.19 8.62Z"></path></g><defs data-v-fde0c5aa=""><!----></defs><g data-v-fde0c5aa="" id="06b45b64-2956-4eed-b34f-e1fb0937e026" stroke="none" fill="#3E92CC" transform="matrix(0.46769039836501575,0,0,0.46769039836501575,35.92217001483997,126.56154905098148)"><path d="M74.9 56.2c.9.9 2 1.5 3.3 1.8-1.8 4.4-4.6 8.2-8 11.4v19.8c0 1.3-1.1 2.5-2.3 2.8l-33.5 6c-1.2.2-2.3-.6-2.3-1.8v-9.4L22.8 88C19 88 16 85 16 81.3V69.4h-3.1c-3.6 0-5.2-2.6-3.5-5.8L16 51v-5.4c0-12.9 7.6-24 18.7-29.1.3-.2.7-.3 1-.5.3.9.9 1.8 1.6 2.5l.4.4c-.4.8-.7 1.7-1 2.5h-.6c-3.7 0-6.8 3-6.8 6.8v5.1c0 3.7 3 6.8 6.8 6.8h.6c.3.9.7 1.7 1 2.5l-.4.4c-2.6 2.6-2.6 6.9 0 9.6l3.6 3.6c1.3 1.3 3 2 4.8 2 1.8 0 3.5-.7 4.8-2l.4-.4c.8.4 1.7.7 2.5 1v.6c0 3.7 3 6.8 6.8 6.8h5.1c3.7 0 6.8-3 6.8-6.8v-.6c.9-.3 1.7-.7 2.5-1l.3.4zM62.7 22.3c-4.6 0-8.4 3.8-8.4 8.4 0 4.6 3.8 8.4 8.4 8.4s8.4-3.8 8.4-8.4c0-4.6-3.8-8.4-8.4-8.4zm28.5 5.9v5.1c0 1-.8 1.9-1.9 1.9H85c-.6 3-1.8 5.8-3.4 8.2l3 3c.7.7.7 1.9 0 2.7L81 52.7c-.7.7-1.9.7-2.7 0l-3-3c-2.5 1.6-5.2 2.8-8.2 3.4v4.3c0 1-.8 1.9-1.9 1.9h-5.1c-1 0-1.9-.8-1.9-1.9v-4.3c-3-.6-5.8-1.8-8.2-3.4l-3 3c-.7.7-1.9.7-2.7 0l-3.6-3.6c-.7-.7-.7-1.9 0-2.7l3-3c-1.6-2.5-2.8-5.2-3.4-8.2H36c-1 0-1.9-.8-1.9-1.9v-5.1c0-1 .8-1.9 1.9-1.9h4.3c.6-3 1.8-5.8 3.4-8.2l-3-3c-.7-.7-.7-1.9 0-2.7l3.6-3.6c.8-.8 2-.8 2.7-.1l3 3c2.5-1.6 5.2-2.8 8.2-3.4V4.1c0-1 .8-1.9 1.9-1.9h5.1c1 0 1.9.8 1.9 1.9v4.3c3 .6 5.8 1.8 8.2 3.4l3-3c.7-.7 1.9-.7 2.7 0l3.6 3.6c.7.7.7 1.9 0 2.7l-3 3c1.6 2.5 2.8 5.2 3.4 8.2h4.3c1.1 0 1.9.8 1.9 1.9zM76 30.7c0-7.3-6-13.3-13.3-13.3-7.3 0-13.3 6-13.3 13.3 0 7.3 6 13.3 13.3 13.3C70 44 76 38.1 76 30.7z"></path></g><defs data-v-fde0c5aa=""><!----></defs><g data-v-fde0c5aa="" id="7b0dd221-2972-458b-adb9-5d2cbf50ac47" fill="#898CD8" transform="matrix(0.6899248544267619,0,0,0.6899248544267619,91.54794038256439,158.6006532346289)"><path d="M5.29 2.21L3.98 2.21L0.04 11.48L1.20 11.48L2.34 8.79L6.93 8.79L8.06 11.48L9.23 11.48ZM2.74 7.83L4.63 3.30L6.52 7.83ZM21.31 2.21L17.40 2.21L17.40 11.48L21.31 11.48C23.52 11.48 25.56 9.74 25.56 6.85C25.56 3.95 23.52 2.21 21.31 2.21ZM21.27 10.49L18.45 10.49L18.45 3.21L21.27 3.21C23.24 3.21 24.51 4.86 24.51 6.85C24.51 8.83 23.24 10.49 21.27 10.49ZM40.56 2.21L37.35 10.29L34.15 2.21L33.00 2.21L36.75 11.48L37.95 11.48L41.71 2.21ZM53.44 2.21L52.12 2.21L48.19 11.48L49.35 11.48L50.48 8.79L55.08 8.79L56.21 11.48L57.37 11.48ZM50.89 7.83L52.78 3.30L54.67 7.83ZM72.49 2.21L72.49 10.01L66.77 2.21L65.55 2.21L65.55 11.48L66.60 11.48L66.60 3.65L72.32 11.48L73.54 11.48L73.54 2.21ZM86.79 10.57C84.53 10.57 83.27 8.93 83.27 6.85C83.27 4.76 84.53 3.12 86.79 3.12C88.31 3.12 89.32 3.85 89.80 4.98L90.90 4.98C90.31 3.29 88.80 2.10 86.70 2.10C83.92 2.10 82.22 4.21 82.22 6.85C82.22 9.48 83.92 11.59 86.70 11.59C88.80 11.59 90.31 10.40 90.90 8.71L89.80 8.71C89.32 9.84 88.31 10.57 86.79 10.57ZM100.52 2.21L99.47 2.21L99.47 11.48L100.52 11.48ZM116.73 2.21L116.73 10.01L111.01 2.21L109.79 2.21L109.79 11.48L110.84 11.48L110.84 3.65L116.56 11.48L117.78 11.48L117.78 2.21ZM131.03 2.10C128.24 2.10 126.46 4.21 126.46 6.85C126.46 9.48 128.17 11.59 131.00 11.59C132.68 11.59 133.77 10.74 134.36 9.84L134.36 11.48L135.32 11.48L135.32 6.55L130.97 6.55L130.97 7.50L134.36 7.50C134.36 9.44 132.76 10.57 131.08 10.57C128.83 10.57 127.51 8.93 127.51 6.85C127.51 4.76 128.86 3.12 131.11 3.12C132.52 3.12 133.53 3.74 134.09 4.73L135.24 4.73C134.55 3.18 133.01 2.10 131.03 2.10ZM159.99 6.75C160.65 6.45 161.24 5.85 161.24 4.66C161.24 3.54 160.50 2.21 158.31 2.21L154.15 2.21L154.15 11.48L158.55 11.48C160.66 11.48 161.71 10.43 161.71 9.04C161.71 7.66 160.78 7 159.99 6.75ZM155.20 3.21L158.42 3.21C159.70 3.21 160.19 3.98 160.19 4.75C160.19 5.88 159.28 6.36 158.31 6.36L155.20 6.36ZM158.66 10.49L155.20 10.49L155.20 7.31L158.55 7.31C160.02 7.31 160.66 8.09 160.66 8.96C160.66 9.93 159.94 10.49 158.66 10.49ZM177.24 3.22L177.24 2.21L170.42 2.21L170.42 11.48L177.24 11.48L177.24 10.47L171.47 10.47L171.47 7.35L176.62 7.35L176.62 6.33L171.47 6.33L171.47 3.22ZM189.73 7.81L193.61 2.21L192.33 2.21L189.20 6.72L186.06 2.21L184.79 2.21L188.68 7.81L188.68 11.48L189.73 11.48ZM205.35 2.10C202.54 2.10 200.65 4.21 200.65 6.85C200.65 9.48 202.54 11.59 205.35 11.59C208.17 11.59 210.06 9.48 210.06 6.85C210.06 4.21 208.17 2.10 205.35 2.10ZM205.35 10.57C203.10 10.57 201.70 8.93 201.70 6.85C201.70 4.76 203.10 3.12 205.35 3.12C207.61 3.12 209.01 4.76 209.01 6.85C209.01 8.93 207.61 10.57 205.35 10.57ZM225.68 2.21L225.68 10.01L219.95 2.21L218.74 2.21L218.74 11.48L219.79 11.48L219.79 3.65L225.51 11.48L226.73 11.48L226.73 2.21ZM239.90 2.21L236.00 2.21L236.00 11.48L239.90 11.48C242.12 11.48 244.16 9.74 244.16 6.85C244.16 3.95 242.12 2.21 239.90 2.21ZM239.86 10.49L237.05 10.49L237.05 3.21L239.86 3.21C241.84 3.21 243.11 4.86 243.11 6.85C243.11 8.83 241.84 10.49 239.86 10.49Z"></path></g></svg>