<svg data-v-423bf9ae="" xmlns="http://www.w3.org/2000/svg" viewBox="0 0 51.64169037551374 60" class="icon"><!----><!----><!----><!----><g data-v-423bf9ae="" id="69fc94c7-f08b-4a44-b8e2-730973d523d8" transform="matrix(0.6261046348328024,0,0,0.6261046348328024,-5.4590569190055405,-1.3774310308864983)" stroke="none" fill="black"><path d="M74.9 56.2c.9.9 2 1.5 3.3 1.8-1.8 4.4-4.6 8.2-8 11.4v19.8c0 1.3-1.1 2.5-2.3 2.8l-33.5 6c-1.2.2-2.3-.6-2.3-1.8v-9.4L22.8 88C19 88 16 85 16 81.3V69.4h-3.1c-3.6 0-5.2-2.6-3.5-5.8L16 51v-5.4c0-12.9 7.6-24 18.7-29.1.3-.2.7-.3 1-.5.3.9.9 1.8 1.6 2.5l.4.4c-.4.8-.7 1.7-1 2.5h-.6c-3.7 0-6.8 3-6.8 6.8v5.1c0 3.7 3 6.8 6.8 6.8h.6c.3.9.7 1.7 1 2.5l-.4.4c-2.6 2.6-2.6 6.9 0 9.6l3.6 3.6c1.3 1.3 3 2 4.8 2 1.8 0 3.5-.7 4.8-2l.4-.4c.8.4 1.7.7 2.5 1v.6c0 3.7 3 6.8 6.8 6.8h5.1c3.7 0 6.8-3 6.8-6.8v-.6c.9-.3 1.7-.7 2.5-1l.3.4zM62.7 22.3c-4.6 0-8.4 3.8-8.4 8.4 0 4.6 3.8 8.4 8.4 8.4s8.4-3.8 8.4-8.4c0-4.6-3.8-8.4-8.4-8.4zm28.5 5.9v5.1c0 1-.8 1.9-1.9 1.9H85c-.6 3-1.8 5.8-3.4 8.2l3 3c.7.7.7 1.9 0 2.7L81 52.7c-.7.7-1.9.7-2.7 0l-3-3c-2.5 1.6-5.2 2.8-8.2 3.4v4.3c0 1-.8 1.9-1.9 1.9h-5.1c-1 0-1.9-.8-1.9-1.9v-4.3c-3-.6-5.8-1.8-8.2-3.4l-3 3c-.7.7-1.9.7-2.7 0l-3.6-3.6c-.7-.7-.7-1.9 0-2.7l3-3c-1.6-2.5-2.8-5.2-3.4-8.2H36c-1 0-1.9-.8-1.9-1.9v-5.1c0-1 .8-1.9 1.9-1.9h4.3c.6-3 1.8-5.8 3.4-8.2l-3-3c-.7-.7-.7-1.9 0-2.7l3.6-3.6c.8-.8 2-.8 2.7-.1l3 3c2.5-1.6 5.2-2.8 8.2-3.4V4.1c0-1 .8-1.9 1.9-1.9h5.1c1 0 1.9.8 1.9 1.9v4.3c3 .6 5.8 1.8 8.2 3.4l3-3c.7-.7 1.9-.7 2.7 0l3.6 3.6c.7.7.7 1.9 0 2.7l-3 3c1.6 2.5 2.8 5.2 3.4 8.2h4.3c1.1 0 1.9.8 1.9 1.9zM76 30.7c0-7.3-6-13.3-13.3-13.3-7.3 0-13.3 6-13.3 13.3 0 7.3 6 13.3 13.3 13.3C70 44 76 38.1 76 30.7z"></path></g><!----></svg>